<?xml version="1.0" encoding="UTF-8"?>
<svg id="Layer_2" data-name="Layer 2" xmlns="http://www.w3.org/2000/svg" viewBox="0 0 906.83 954.04">
  <defs>
    <style>
      .cls-1 {
        fill: #f1f2f2;
      }
    </style>
  </defs>
  <g id="Layer_1-2" data-name="Layer 1">
    <g>
      <path class="cls-1" d="M461.21,643.13c-42.38,68.28-83.7,134.85-126.68,204.09,15.55,5.91,29.97,11.39,48.27,18.34-39.76,25.19-76.42,48.43-116.67,73.94-4.19-45.4-8.05-87.12-12.26-132.75,14.44,7.75,25.64,13.77,38.81,20.84,55.26-97.99,109.85-194.78,164.44-291.58-.77-1.2-1.54-2.39-2.31-3.59-127.05,61.55-254.1,123.1-381.15,184.65-1.3-1.17-2.6-2.34-3.9-3.51C206.62,476.85,343.48,240.14,482.32,0c49,94.34,96.34,185.47,144.75,278.65-34.33,15.49-67.36,30.4-102.41,46.21-26.25-52.11-51.78-102.8-79.37-157.58-63.67,110.27-125.37,217.12-187.07,323.97,.75,1.32,1.5,2.63,2.25,3.95,114.46-55.29,228.91-110.58,349.27-168.72-18.77,41.93-34.93,78.29-51.3,114.55-19.59,43.39-38.99,86.87-59.3,129.92-5.4,11.45-5.78,19.15,4.09,28.77,22.03,21.46,42.62,44.4,65.56,68.6,31.51-21.46,62.65-42.65,95.07-64.72-24.38-43.19-47.22-84.84-71.37-125.72-7.11-12.05-8.4-21.47-1.51-34.11,19.59-35.91,37.84-72.54,58.53-112.6,16.6,31.97,31.63,60.71,46.48,89.55,44.62,86.62,89.48,173.12,133.28,260.16,4.67,9.27,6.05,22.47,3.69,32.63-11.23,48.42-24.28,96.42-38.25,150.64-40.06-68.58-77.7-133.01-115.95-198.5-23.42,14.97-45.75,27.63-66.19,42.83-14.82,11.03-26.29,9.38-40.98,.19-35.36-22.11-71.67-42.69-110.38-65.52Z"/>
      <path class="cls-1" d="M436.05,47.57c-20.11,34.76-36.41,64.07-54.11,92.5-3.21,5.16-11.8,8.01-18.48,9.83C162.65,204.69,48.08,403.43,100.65,605.06c2.26,8.65,.42,20.32-3.78,28.36-13.45,25.77-28.9,50.49-45.24,78.46C-21.41,555.03-18.83,404.24,71.37,259.9,153.46,128.54,275.92,61.16,436.05,47.57Z"/>
      <path class="cls-1" d="M529.63,55.69c313.76,51.5,469.81,401.61,319.41,664.79,12.56-34.69-9.43-53.64-20.13-75.61-10.23-21.02-14.77-39.82-9.8-64.15,35.26-172.7-53.02-340.82-215.2-411.98-15.23-6.68-24.77-15.75-31.75-30.51-12.99-27.49-27.77-54.13-42.53-82.53Z"/>
      <path class="cls-1" d="M721.02,770.49c12.89,22.03,25.36,43.35,37.64,64.32-119.67,119.07-317.1,145.65-445.65,94.45,28.85-18.26,56.24-35.98,84.14-52.85,4.44-2.68,11.31-2.59,16.86-2,115.51,12.24,215.19-22.4,300.28-100.75,1-.92,2.55-1.24,6.73-3.17Z"/>
      <path class="cls-1" d="M245.69,903.13c-75.54-39.36-132.98-93.32-178.06-165.03,25.26-12.26,48.75-23.65,69.2-33.58,32.77,33.01,64.48,64.78,95.87,96.85,2.8,2.86,4.76,7.55,5.15,11.58,2.8,28.89,5.09,57.83,7.84,90.18Z"/>
    </g>
  </g>
</svg>